<?xml version="1.0" encoding="iso-8859-1"?>
<!-- Generator: Adobe Illustrator 19.0.0, SVG Export Plug-In . SVG Version: 6.00 Build 0)  -->
<svg version="1.1" id="Layer_1" xmlns="http://www.w3.org/2000/svg" xmlns:xlink="http://www.w3.org/1999/xlink" x="0px" y="0px"
	 viewBox="0 0 512 512" style="enable-background:new 0 0 512 512;" xml:space="preserve">
<circle style="fill:#E6F3FF;" cx="256" cy="256" r="256"/>
<path style="fill:#CFDBE6;" d="M437.019,437.019c37.207-37.207,60.556-83.018,70.068-131.029l-151.98-151.978l-121.961,108.82
	l-79.982,91.372l152.874,152.874C354.032,497.559,399.825,474.214,437.019,437.019z"/>
<path style="fill:#FC6F58;" d="M398.222,256c0-78.546-63.676-142.222-142.222-142.222S113.778,177.454,113.778,256
	c0,43.558,19.601,82.518,50.44,108.606h183.563C378.62,338.518,398.222,299.558,398.222,256z"/>
<path style="fill:#F1543F;" d="M256,113.778v250.828h91.781c30.839-26.088,50.44-65.048,50.44-108.606
	C398.222,177.454,334.548,113.779,256,113.778z"/>
<path style="fill:#324A5E;" d="M368.109,252.442c0-61.918-50.193-112.111-112.111-112.111s-112.111,50.193-112.111,112.111
	c0,34.335,15.451,65.046,39.76,85.611h144.699C352.658,317.488,368.109,286.777,368.109,252.442z"/>
<path style="fill:#2B3B4E;" d="M256,140.331v197.722h72.349c24.309-20.564,39.76-51.276,39.76-85.611
	C368.109,190.524,317.918,140.333,256,140.331z"/>
<path style="fill:#FD8469;" d="M214.675,235.732l56.744,83.239l-30.839,15.419l-32.544-95.339
	C206.627,234.924,212.218,232.129,214.675,235.732z"/>
<path style="fill:#FFD15D;" d="M299.815,369.778h-87.631c-7.22,0-13.072-5.853-13.072-13.072v-30.742
	c0-7.22,5.853-13.072,13.072-13.072h87.631c7.22,0,13.072,5.853,13.072,13.072v30.742
	C312.889,363.925,307.035,369.778,299.815,369.778z"/>
<path style="fill:#F9B54C;" d="M299.815,312.889H256v56.889h43.815c7.22,0,13.072-5.853,13.072-13.072v-30.742
	C312.889,318.742,307.035,312.889,299.815,312.889z"/>
<g>
</g>
<g>
</g>
<g>
</g>
<g>
</g>
<g>
</g>
<g>
</g>
<g>
</g>
<g>
</g>
<g>
</g>
<g>
</g>
<g>
</g>
<g>
</g>
<g>
</g>
<g>
</g>
<g>
</g>
</svg>
